<?xml version="1.0" encoding="utf-8"?>
<!-- Generator: Adobe Illustrator 16.0.0, SVG Export Plug-In . SVG Version: 6.00 Build 0)  -->
<!DOCTYPE svg PUBLIC "-//W3C//DTD SVG 1.1//EN" "http://www.w3.org/Graphics/SVG/1.1/DTD/svg11.dtd">
<svg version="1.1" id="Layer_1" xmlns="http://www.w3.org/2000/svg" xmlns:xlink="http://www.w3.org/1999/xlink" x="0px" y="0px"
	 width="312px" height="60px" viewBox="0 0 312 60" enable-background="new 0 0 312 60" xml:space="preserve">
<image display="none" overflow="visible" enable-background="new    " width="312" height="60" xlink:href="C97F8573.png"  transform="matrix(0.9999 0 0 0.9999 0.0188 0.0044)">
</image>
<g>
	<linearGradient id="SVGID_1_" gradientUnits="userSpaceOnUse" x1="12.0676" y1="30.3135" x2="78.0686" y2="30.3135">
		<stop  offset="0" style="stop-color:#B600FF"/>
		<stop  offset="1" style="stop-color:#00FFFF"/>
	</linearGradient>
	<path fill="url(#SVGID_1_)" d="M64.824,45.248l-0.066,0.201c-0.01,0.078-1.644,6.492-5.938,6.492c-4.306,0-5.941-6.414-5.955-6.48
		L47.588,29.47l-5.19-15.671c-0.326-1.261-2.995-10.432-11.079-10.432c-8.082,0-10.74,9.171-11.077,10.432L12.068,38.5h5.592
		l7.653-23.119l0.063-0.208c0.014-0.076,1.647-6.483,5.943-6.483c4.305,0,5.928,6.407,5.955,6.473l5.278,15.978l5.188,15.682
		C48.066,48.08,50.735,57.26,58.82,57.26c8.082,0,10.741-9.18,11.077-10.438l8.172-24.696h-5.587L64.824,45.248z"/>
	<g>
		<path fill="#5A5A5A" d="M83.625,22.698h-0.515c-0.225,0-0.318-0.165-0.318-0.326c0-0.162,0.117-0.323,0.318-0.323h1.733
			c0.201,0,0.319,0.161,0.319,0.323c0,0.161-0.095,0.326-0.319,0.326h-0.515v2.362c0,0.236-0.148,0.368-0.352,0.368
			c-0.204,0-0.353-0.132-0.353-0.368V22.698z"/>
		<path fill="#5A5A5A" d="M85.891,22.381c0.029-0.168,0.211-0.36,0.462-0.36c0.234,0,0.418,0.168,0.471,0.339l0.554,1.863h0.012
			l0.556-1.863c0.051-0.171,0.235-0.339,0.47-0.339c0.251,0,0.435,0.192,0.462,0.36l0.438,2.63c0.004,0.026,0.004,0.055,0.004,0.079
			c0,0.206-0.151,0.338-0.339,0.338c-0.24,0-0.334-0.11-0.367-0.329l-0.276-1.916h-0.012l-0.563,1.973
			c-0.033,0.112-0.123,0.272-0.378,0.272c-0.252,0-0.342-0.16-0.377-0.272l-0.563-1.973h-0.01l-0.278,1.916
			c-0.033,0.219-0.127,0.329-0.365,0.329c-0.19,0-0.341-0.132-0.341-0.338c0-0.024,0-0.053,0.004-0.079L85.891,22.381z"/>
	</g>
	<g>
		<path fill="#5A5A5A" d="M100.665,23.803c-0.01,0.057-0.061,0.103-0.121,0.103c-0.066,0-0.121-0.055-0.121-0.123
			c0-0.815-0.665-1.479-1.483-1.479c-0.817,0-1.48,0.664-1.48,1.479v15.364c0,0.818,0.663,1.479,1.48,1.479
			c0.818,0,1.483-0.66,1.483-1.479V26.213c0-0.05,0.027-0.093,0.072-0.112c2.728-1.195,4.795-1.775,6.321-1.775
			c2.942,0,3.439,1.546,3.439,5.018v9.803c0,0.818,0.665,1.479,1.482,1.479c0.818,0,1.479-0.66,1.479-1.479v-9.803
			c0-4.893-0.967-7.544-6.077-7.544C105.019,21.799,103.013,22.601,100.665,23.803"/>
		<path fill="#5A5A5A" d="M166.695,15.008c-1.049,0-1.901,0.852-1.901,1.9c0,1.048,0.853,1.896,1.901,1.896s1.901-0.849,1.901-1.896
			C168.596,15.86,167.743,15.008,166.695,15.008"/>
		<path fill="#5A5A5A" d="M166.695,22.303c-0.818,0-1.481,0.664-1.481,1.479v15.364c0,0.818,0.663,1.479,1.481,1.479
			c0.817,0,1.482-0.66,1.482-1.479V23.783C168.177,22.967,167.512,22.303,166.695,22.303"/>
		<path fill="#5A5A5A" d="M261.173,15.008c-1.049,0-1.901,0.852-1.901,1.9c0,1.048,0.853,1.896,1.901,1.896
			c1.047,0,1.901-0.849,1.901-1.896C263.074,15.86,262.22,15.008,261.173,15.008"/>
		<path fill="#5A5A5A" d="M261.173,22.303c-0.817,0-1.483,0.664-1.483,1.479v15.364c0,0.818,0.666,1.479,1.483,1.479
			c0.815,0,1.479-0.66,1.479-1.479V23.783C262.653,22.967,261.989,22.303,261.173,22.303"/>
		<path fill="#5A5A5A" d="M151.313,21.726c-1.858,0-3.732,0.468-5.274,1.317c-0.039,0.021-0.086,0.021-0.121,0
			c-0.039-0.024-0.063-0.065-0.063-0.106v-6.45c0-0.815-0.663-1.479-1.479-1.479c-0.817,0-1.482,0.663-1.482,1.479v22.66
			c0,0.73,0.526,1.346,1.252,1.457c0.006,0.002,0.012,0.006,0.02,0.006l0.166,0.023c2.287,0.311,3.664,0.498,5.688,0.498
			c2.966,0,5.095-0.693,6.513-2.121c1.454-1.465,2.158-3.697,2.158-6.826v-2.155C158.689,24.366,156.345,21.726,151.313,21.726
			 M155.692,32.146c0,2.385-0.438,3.959-1.382,4.965c-0.884,0.949-2.226,1.385-4.222,1.385c-1.862,0-3.389-0.121-4.12-0.18
			c-0.063-0.004-0.113-0.059-0.113-0.123V25.493c0-0.046,0.023-0.085,0.063-0.105c1.467-0.839,3.835-1.062,5.001-1.062
			c3.435,0,4.773,1.586,4.773,5.664V32.146z"/>
		<path fill="#5A5A5A" d="M134.573,22.303c-0.813,0-1.479,0.664-1.479,1.479v12.934c0,0.049-0.029,0.094-0.074,0.113
			c-2.728,1.195-4.795,1.775-6.323,1.775c-2.942,0-3.439-1.549-3.439-5.021v-9.801c0-0.815-0.665-1.479-1.479-1.479
			c-0.817,0-1.482,0.664-1.482,1.479v9.801c0,4.895,0.971,7.547,6.078,7.547c2.123,0,4.126-0.801,6.476-2.004
			c0.011-0.057,0.062-0.102,0.122-0.102c0.068,0,0.123,0.055,0.123,0.121c0,0.818,0.665,1.479,1.479,1.479
			c0.818,0,1.483-0.66,1.483-1.479V23.783C136.057,22.967,135.392,22.303,134.573,22.303"/>
		<path fill="#5A5A5A" d="M194.87,21.799c-1.862,0-3.976,0.733-6.113,2.127c-0.027,0.018-0.061,0.024-0.094,0.018
			c-0.034-0.006-0.062-0.028-0.077-0.056c-0.856-1.406-2.422-2.089-4.781-2.089c-1.647,0-3.432,0.55-5.306,1.632
			c-0.033,0.018-0.072,0.02-0.107,0.007c-0.035-0.014-0.061-0.044-0.072-0.08c-0.187-0.619-0.77-1.055-1.419-1.055
			c-0.815,0-1.48,0.664-1.48,1.479v15.364c0,0.818,0.665,1.479,1.48,1.479c0.816,0,1.481-0.66,1.481-1.479V26.044
			c0-0.045,0.023-0.084,0.063-0.108c1.749-0.994,3.65-1.61,4.962-1.61c3.079,0,3.079,1.795,3.079,4.513v10.308
			c0,0.818,0.665,1.479,1.482,1.479c0.818,0,1.481-0.66,1.481-1.479V28.838c0-0.843,0-1.798-0.127-2.705
			c-0.008-0.048,0.016-0.099,0.059-0.123c1.788-1.04,3.74-1.685,5.095-1.685c3.077,0,3.077,1.795,3.077,4.513v10.308
			c0,0.818,0.665,1.479,1.48,1.479c0.818,0,1.483-0.66,1.483-1.479V28.838c0-1.543,0-3.288-0.708-4.672
			C198.992,22.574,197.379,21.799,194.87,21.799"/>
		<path fill="#5A5A5A" d="M254.245,21.812c-2.042,0.164-4.017,0.779-6.386,1.991c-0.01,0.057-0.061,0.103-0.121,0.103
			c-0.068,0-0.123-0.055-0.123-0.123c0-0.815-0.665-1.479-1.479-1.479c-0.817,0-1.482,0.664-1.482,1.479v15.364
			c0,0.818,0.665,1.479,1.482,1.479c0.814,0,1.479-0.66,1.479-1.479V26.213c0-0.05,0.029-0.093,0.072-0.112
			c3.212-1.408,5.961-1.705,6.728-1.766c0.004,0,0.008,0,0.012,0c0.329-0.024,0.637-0.184,0.857-0.438
			c0.221-0.255,0.328-0.585,0.301-0.922C255.534,22.296,254.936,21.767,254.245,21.812"/>
		<path fill="#5A5A5A" d="M214.478,21.804c-5.044,0-7.932,3.771-7.932,9.102v0.967c0,6.416,3.096,9.25,8.503,9.25
			c2.242,0,5.212-0.908,6.074-1.449c0.521-0.336,0.762-1.002,0.538-1.605c-0.256-0.709-1.037-1.07-1.745-0.814
			c-0.025,0.01-0.053,0.021-0.078,0.033c-1.706,0.799-4.003,0.924-4.891,0.924c-3.098,0-5.259-0.762-5.361-5.053h11.574
			c1.46,0,1.478-1.48,1.478-1.48v-1.371C222.638,22.711,216.919,21.804,214.478,21.804 M219.561,30.206h-9.98v-0.145
			c0-3.672,2.193-5.34,5.367-5.34c0,0,4.734-0.178,4.734,5.359C219.682,30.081,219.67,30.206,219.561,30.206"/>
		<path fill="#5A5A5A" d="M281.463,40.648c0.604-0.141,1.059-0.68,1.059-1.326c0-0.752-0.61-1.359-1.362-1.359
			c-0.027,0-0.057,0-0.084,0.002c-1.878,0.166-3.261,0.246-4.149,0.246c-3.173,0-5.366-0.799-5.366-5.377v-2.773
			c0-4.578,2.193-5.34,5.366-5.34c1.55,0,2.911,0.137,4.126,0.242c0.035,0.004,0.072,0.004,0.107,0.004
			c0.752,0,1.362-0.606,1.362-1.357c0-0.65-0.456-1.195-1.068-1.329c-0.994-0.214-2.757-0.477-4.997-0.477
			c-5.407,0-7.931,2.976-7.931,8.257v2.773c0,5.248,2.523,8.289,7.931,8.289C278.702,41.123,280.467,40.861,281.463,40.648"/>
		<path fill="#5A5A5A" d="M299.433,24.604c0.61,0.049,1.17-0.369,1.275-0.982c0.109-0.647-0.323-1.265-0.971-1.375
			c-1.174-0.213-3.063-0.442-4.994-0.442c-4.976,0-7.175,1.505-7.175,4.58c0,2.641,1.624,4.143,5.445,5.649l1.441,0.566
			c3.389,1.338,4.001,1.838,4.001,3.477c0,1.605-0.866,2.471-4.255,2.471c-1.722,0-3.671-0.195-5.067-0.336
			c-0.033-0.006-0.066-0.006-0.102-0.006c-0.669,0-1.209,0.539-1.209,1.211c0,0.592,0.427,1.088,0.991,1.188
			c1.282,0.23,3.465,0.52,5.496,0.52c5.877,0,7.392-2.471,7.392-5.115c0-2.84-1.372-3.975-5.987-5.88l-1.439-0.567
			c-2.813-1.138-3.461-1.739-3.461-3.176c0-1.671,1.188-2.007,4.073-2.007C295.978,24.377,297.715,24.465,299.433,24.604"/>
		<path fill="#5A5A5A" d="M238.432,38.068c-0.716,0.098-1.917,0.201-2.653,0.201c-1.839,0-2.019-0.359-2.019-2.592v-9.801
			c0-0.032,0.012-0.065,0.035-0.088c0.023-0.024,0.055-0.035,0.088-0.035h4.525c0.817,0,1.48-0.665,1.48-1.478
			c0-0.816-0.663-1.479-1.48-1.479h-4.535c-0.066,0-0.121-0.058-0.121-0.123l-0.018-4.238c-0.002-0.808-0.665-1.469-1.476-1.471
			c-0.819,0-1.484,0.66-1.486,1.471l-0.018,4.238c0,0.065-0.055,0.123-0.121,0.123h-1.487c-0.817,0-1.48,0.663-1.48,1.479
			c0,0.813,0.663,1.478,1.48,1.478h1.479c0.031,0,0.063,0.011,0.086,0.035c0.012,0.013,0.021,0.03,0.027,0.047v10.249
			c0,3.742,1.074,5.039,4.68,5.039c1.162,0,2.813-0.297,3.545-0.525c0.597-0.176,0.998-0.766,0.919-1.402
			C239.793,38.484,239.144,37.98,238.432,38.068"/>
	</g>
</g>
</svg>
